<svg width="975" height="76" viewBox="0 0 975 76" fill="none" xmlns="http://www.w3.org/2000/svg">
<g filter="url(#filter0_d_10_37)">
<path d="M18.6953 65H15.8828V0.3125H18.6953V65ZM13.0703 65H10.2578V0.3125H13.0703V65ZM7.44531 65H4.63281V0.3125H7.44531V65ZM24.3203 50.9375H54.2422V53.75H24.3203V56.5625H54.2422V59.375H24.3203V62.1875H54.2422V65H21.5078V0.3125H54.2422V3.125H24.3203V5.9375H54.2422V8.75H24.3203V11.5625H54.2422V14.375H24.3203V25.625H39.6719V28.4375H24.3203V31.25H39.6719V34.0625H24.3203V36.875H39.6719V39.6875H24.3203V50.9375ZM115.805 8.75H119.242L83.3828 65H79.8672L115.805 8.75ZM108.852 8.75H112.289L76.3906 65H72.9531L108.852 8.75ZM101.898 8.75H105.375L69.4766 65H66L101.898 8.75ZM94.9453 8.75H98.4609L62.5234 65H59.0859L94.9453 8.75ZM77.7578 32.6172L76.0391 35.3516L59.0859 8.75H62.5234L77.7578 32.6172ZM90.0625 57.3047L91.7812 54.5703L98.4609 65H94.9453L90.0625 57.3047ZM81.2344 27.1875L79.5156 29.8828L66.0391 8.75H69.4766L81.2344 27.1875ZM93.5391 51.8359L95.2578 49.1406L105.375 65H101.938L93.5391 51.8359ZM84.7109 21.7188L82.9922 24.4531L72.9531 8.75H76.4297L84.7109 21.7188ZM96.9766 46.4062L98.7344 43.6719L112.328 65H108.852L96.9766 46.4062ZM88.1875 16.2891L86.4297 19.0234L79.8672 8.75H83.3828L88.1875 16.2891ZM100.453 40.9766L102.211 38.2812L119.242 65H115.805L100.453 40.9766ZM164.32 37.2656C164.32 33.9323 163.292 31.3542 161.234 29.5312C159.177 27.7083 156.456 26.7969 153.07 26.7969C150.206 26.7969 147.745 27.7865 145.688 29.7656C143.63 31.7448 142.602 34.1146 142.602 36.875C142.602 38.4375 142.81 39.8438 143.227 41.0938C143.643 42.3177 144.203 43.3464 144.906 44.1797C145.635 44.987 146.495 45.6641 147.484 46.2109C148.474 46.7318 149.503 47.1094 150.57 47.3438C151.664 47.5781 152.823 47.6953 154.047 47.6953C157.016 47.6953 159.724 46.9661 162.172 45.5078V48.3203C159.646 49.6484 156.924 50.3125 154.008 50.3125C152.133 50.3125 150.362 50.0651 148.695 49.5703C147.055 49.0495 145.557 48.2812 144.203 47.2656C142.849 46.224 141.768 44.8177 140.961 43.0469C140.18 41.25 139.789 39.1927 139.789 36.875C139.789 33.2812 141.052 30.2344 143.578 27.7344C146.104 25.2344 149.268 23.9844 153.07 23.9844C157.263 23.9844 160.648 25.1693 163.227 27.5391C165.831 29.8828 167.133 33.125 167.133 37.2656V65H164.32V37.2656ZM172.758 37.2656V65H169.945V37.2656C169.945 32.3438 168.37 28.4375 165.219 25.5469C162.068 22.6302 158.018 21.1719 153.07 21.1719C148.487 21.1719 144.659 22.6953 141.586 25.7422C138.513 28.7891 136.977 32.5 136.977 36.875C136.977 39.5312 137.432 41.9141 138.344 44.0234C139.281 46.1328 140.544 47.8255 142.133 49.1016C143.721 50.3776 145.492 51.3542 147.445 52.0312C149.424 52.6823 151.508 53.0078 153.695 53.0078C156.664 53.0078 159.49 52.3177 162.172 50.9375V53.9062C159.359 55.0781 156.521 55.6641 153.656 55.6641C151.078 55.6641 148.63 55.2734 146.312 54.4922C143.995 53.6849 141.924 52.526 140.102 51.0156C138.279 49.4792 136.833 47.5 135.766 45.0781C134.698 42.6302 134.164 39.8958 134.164 36.875C134.164 31.7448 135.974 27.3828 139.594 23.7891C143.24 20.1693 147.732 18.3594 153.07 18.3594C156.82 18.3594 160.18 19.1276 163.148 20.6641C166.117 22.1745 168.461 24.375 170.18 27.2656C171.898 30.1562 172.758 33.4896 172.758 37.2656ZM178.383 37.2656V65H175.57V37.2656C175.57 32.9688 174.581 29.1667 172.602 25.8594C170.648 22.526 167.966 19.974 164.555 18.2031C161.143 16.4323 157.315 15.5469 153.07 15.5469C149.034 15.5469 145.349 16.5104 142.016 18.4375C138.682 20.3385 136.065 22.9167 134.164 26.1719C132.289 29.4271 131.352 32.9948 131.352 36.875C131.352 40.2083 131.964 43.2552 133.188 46.0156C134.411 48.75 136.052 51.0026 138.109 52.7734C140.193 54.5443 142.549 55.9245 145.18 56.9141C147.836 57.8776 150.609 58.3594 153.5 58.3594C156.443 58.3594 159.333 57.7474 162.172 56.5234V59.375C159.203 60.4948 156.286 61.0547 153.422 61.0547C148.917 61.0547 144.776 60.0391 141 58.0078C137.224 55.9766 134.203 53.099 131.938 49.375C129.672 45.651 128.539 41.4844 128.539 36.875C128.539 33.5938 129.164 30.4688 130.414 27.5C131.69 24.5312 133.409 21.9661 135.57 19.8047C137.732 17.6432 140.336 15.9245 143.383 14.6484C146.43 13.3724 149.659 12.7344 153.07 12.7344C157.836 12.7344 162.133 13.75 165.961 15.7812C169.815 17.8125 172.849 20.7031 175.062 24.4531C177.276 28.2031 178.383 32.474 178.383 37.2656ZM184.008 37.2656V65H181.195V37.2656C181.195 31.9531 179.958 27.2135 177.484 23.0469C175.01 18.8542 171.638 15.625 167.367 13.3594C163.096 11.0677 158.331 9.92188 153.07 9.92188C148.018 9.92188 143.396 11.1328 139.203 13.5547C135.01 15.9766 131.716 19.2578 129.32 23.3984C126.924 27.513 125.727 32.0052 125.727 36.875C125.727 40.0781 126.234 43.125 127.25 46.0156C128.292 48.8802 129.698 51.3932 131.469 53.5547C133.266 55.6901 135.323 57.5391 137.641 59.1016C139.984 60.6641 142.497 61.849 145.18 62.6562C147.888 63.4635 150.635 63.8672 153.422 63.8672C156.495 63.8672 159.411 63.2812 162.172 62.1094V65C159.281 66.0156 156.312 66.5234 153.266 66.5234C150.115 66.5234 147.042 66.0807 144.047 65.1953C141.078 64.3099 138.318 63.0078 135.766 61.2891C133.24 59.5443 131.013 57.5 129.086 55.1562C127.159 52.7865 125.648 50.026 124.555 46.875C123.461 43.724 122.914 40.3906 122.914 36.875C122.914 32.8385 123.669 28.9974 125.18 25.3516C126.716 21.6797 128.799 18.5156 131.43 15.8594C134.086 13.1771 137.289 11.0547 141.039 9.49219C144.815 7.90365 148.826 7.10938 153.07 7.10938C157.393 7.10938 161.456 7.83854 165.258 9.29688C169.06 10.7552 172.341 12.7865 175.102 15.3906C177.862 17.9688 180.036 21.1458 181.625 24.9219C183.214 28.6979 184.008 32.8125 184.008 37.2656ZM226.898 29.8438V65H224.086V29.8438C224.086 29.0885 223.956 28.4505 223.695 27.9297C223.461 27.3828 223.148 26.9661 222.758 26.6797C222.367 26.3932 221.846 26.1719 221.195 26.0156C220.57 25.8333 219.958 25.7292 219.359 25.7031C218.76 25.651 218.018 25.625 217.133 25.625C216.247 25.625 215.505 25.651 214.906 25.7031C214.307 25.7292 213.682 25.8333 213.031 26.0156C212.406 26.1719 211.898 26.3932 211.508 26.6797C211.117 26.9661 210.792 27.3828 210.531 27.9297C210.297 28.4505 210.18 29.0885 210.18 29.8438V65H207.367V29.8438C207.367 25.1562 210.622 22.8125 217.133 22.8125C223.643 22.8125 226.898 25.1562 226.898 29.8438ZM232.523 29.8438V65H229.711V29.8438C229.711 26.5365 228.539 24.0755 226.195 22.4609C223.878 20.8203 220.857 20 217.133 20C213.409 20 210.375 20.8203 208.031 22.4609C205.714 24.0755 204.555 26.5365 204.555 29.8438V65H201.742V29.8438C201.742 27.1094 202.445 24.7656 203.852 22.8125C205.258 20.8594 207.094 19.4401 209.359 18.5547C211.651 17.6432 214.242 17.1875 217.133 17.1875C220.023 17.1875 222.602 17.6432 224.867 18.5547C227.159 19.4401 229.008 20.8594 230.414 22.8125C231.82 24.7656 232.523 27.1094 232.523 29.8438ZM238.148 29.8438V65H235.336V29.8438C235.336 27.3958 234.854 25.1823 233.891 23.2031C232.953 21.224 231.651 19.5964 229.984 18.3203C228.318 17.0443 226.391 16.0677 224.203 15.3906C222.016 14.7135 219.659 14.375 217.133 14.375C214.607 14.375 212.25 14.7135 210.062 15.3906C207.875 16.0677 205.948 17.0443 204.281 18.3203C202.615 19.5964 201.299 21.224 200.336 23.2031C199.398 25.1823 198.93 27.3958 198.93 29.8438V65H196.117V29.8438C196.117 27.0052 196.664 24.4271 197.758 22.1094C198.878 19.7917 200.388 17.8776 202.289 16.3672C204.19 14.8307 206.417 13.6458 208.969 12.8125C211.521 11.9792 214.242 11.5625 217.133 11.5625C220.023 11.5625 222.745 11.9792 225.297 12.8125C227.849 13.6458 230.076 14.8307 231.977 16.3672C233.878 17.8776 235.375 19.7917 236.469 22.1094C237.589 24.4271 238.148 27.0052 238.148 29.8438ZM243.773 65H240.961V29.8438C240.961 27.0052 240.323 24.2839 239.047 21.6797C237.797 19.0755 236.104 16.8359 233.969 14.9609C231.833 13.0599 229.294 11.5495 226.352 10.4297C223.409 9.3099 220.336 8.75 217.133 8.75C212.732 8.75 208.734 9.58333 205.141 11.25C201.573 12.8906 198.708 15.3385 196.547 18.5938C194.385 21.8229 193.305 25.5729 193.305 29.8438V65H190.492V29.8438C190.492 26.25 191.195 22.9427 192.602 19.9219C194.008 16.901 195.909 14.375 198.305 12.3438C200.727 10.3125 203.552 8.73698 206.781 7.61719C210.036 6.4974 213.487 5.9375 217.133 5.9375C223.591 5.9375 229.19 7.5651 233.93 10.8203C238.669 7.5651 244.268 5.9375 250.727 5.9375C254.372 5.9375 257.81 6.4974 261.039 7.61719C264.294 8.73698 267.12 10.3125 269.516 12.3438C271.938 14.375 273.852 16.901 275.258 19.9219C276.664 22.9427 277.367 26.25 277.367 29.8438V65H274.555V29.8438C274.555 25.599 273.474 21.862 271.312 18.6328C269.151 15.3776 266.273 12.9167 262.68 11.25C259.112 9.58333 255.128 8.75 250.727 8.75C245.206 8.75 240.388 10.0521 236.273 12.6562C236.872 13.1771 237.536 13.8542 238.266 14.6875C241.833 12.6042 245.987 11.5625 250.727 11.5625C253.617 11.5625 256.339 11.9792 258.891 12.8125C261.443 13.6458 263.669 14.8307 265.57 16.3672C267.471 17.8776 268.969 19.7917 270.062 22.1094C271.182 24.4271 271.742 27.0052 271.742 29.8438V65H268.93V29.8438C268.93 27.3958 268.448 25.1823 267.484 23.2031C266.547 21.224 265.245 19.5964 263.578 18.3203C261.911 17.0443 259.984 16.0677 257.797 15.3906C255.609 14.7135 253.253 14.375 250.727 14.375C246.586 14.375 243.005 15.2214 239.984 16.9141C240.453 17.6432 240.922 18.4505 241.391 19.3359C243.943 17.9036 247.055 17.1875 250.727 17.1875C253.617 17.1875 256.195 17.6432 258.461 18.5547C260.753 19.4401 262.602 20.8594 264.008 22.8125C265.414 24.7656 266.117 27.1094 266.117 29.8438V65H263.305V29.8438C263.305 26.5365 262.133 24.0755 259.789 22.4609C257.471 20.8203 254.451 20 250.727 20C247.341 20 244.594 20.625 242.484 21.875C242.823 22.8646 243.083 23.8021 243.266 24.6875C244.906 23.4375 247.393 22.8125 250.727 22.8125C257.237 22.8125 260.492 25.1562 260.492 29.8438V65H257.68V29.8438C257.68 29.0885 257.549 28.4505 257.289 27.9297C257.055 27.3828 256.742 26.9661 256.352 26.6797C255.961 26.3932 255.44 26.1719 254.789 26.0156C254.164 25.8333 253.552 25.7292 252.953 25.7031C252.354 25.651 251.612 25.625 250.727 25.625C249.841 25.625 249.099 25.651 248.5 25.7031C247.901 25.7292 247.276 25.8333 246.625 26.0156C246 26.1719 245.492 26.3932 245.102 26.6797C244.711 26.9661 244.385 27.3828 244.125 27.9297C243.891 28.4505 243.773 29.0885 243.773 29.8438V65ZM305.648 32.8125H322.602C325.18 32.8125 327.354 31.9792 329.125 30.3125C330.922 28.6458 331.82 26.276 331.82 23.2031C331.82 20.9375 330.883 18.9062 329.008 17.1094C327.133 15.2865 324.997 14.375 322.602 14.375H298.461V65H295.648V11.5625H322.602C325.779 11.5625 328.578 12.7474 331 15.1172C333.422 17.4609 334.633 20.1562 334.633 23.2031C334.633 26.9531 333.461 29.9609 331.117 32.2266C328.773 34.4922 325.935 35.625 322.602 35.625H305.648V32.8125ZM305.648 38.4375H322.602C326.664 38.4375 330.154 37.0182 333.07 34.1797C335.987 31.3151 337.445 27.6562 337.445 23.2031C337.445 19.375 335.948 16.0156 332.953 13.125C329.984 10.2083 326.534 8.75 322.602 8.75H292.836V65H290.023V5.9375H322.602C325.701 5.9375 328.604 6.73177 331.312 8.32031C334.047 9.90885 336.221 12.0443 337.836 14.7266C339.451 17.3828 340.258 20.2083 340.258 23.2031C340.258 28.3333 338.513 32.6302 335.023 36.0938C331.56 39.5312 327.419 41.25 322.602 41.25H305.648V38.4375ZM305.648 44.0625H322.602C326.247 44.0625 329.633 43.1641 332.758 41.3672C335.883 39.5703 338.383 37.0703 340.258 33.8672C342.133 30.638 343.07 27.0833 343.07 23.2031C343.07 19.6875 342.133 16.3932 340.258 13.3203C338.409 10.2214 335.909 7.7474 332.758 5.89844C329.607 4.04948 326.221 3.125 322.602 3.125H287.211V65H284.398V0.3125H322.602C326.69 0.3125 330.531 1.36719 334.125 3.47656C337.719 5.5599 340.57 8.3724 342.68 11.9141C344.815 15.4297 345.883 19.1927 345.883 23.2031C345.883 27.8385 344.88 31.9141 342.875 35.4297C340.896 38.9453 338.201 41.6927 334.789 43.6719L342.055 65H339.086L332.133 45C331.091 45.4167 330.297 45.7031 329.75 45.8594L336.273 65H333.305L326.938 46.5234C326.703 46.5755 325.87 46.6667 324.438 46.7969L330.492 65H327.523L321.547 46.875H319.008L324.711 65H321.742L316 46.875H305.648V44.0625ZM304.086 65H301.273V17.1875H322.602C324.346 17.1875 325.844 17.7865 327.094 18.9844C328.37 20.1562 329.008 21.5625 329.008 23.2031C329.008 27.7344 326.872 30 322.602 30H305.648V27.1875H322.602C323.721 27.1875 324.594 26.901 325.219 26.3281C325.87 25.7292 326.195 24.6875 326.195 23.2031C326.195 22.2917 325.844 21.5365 325.141 20.9375C324.464 20.3125 323.617 20 322.602 20H304.086V65ZM373.383 28.9453C371.195 31.1328 370.102 33.776 370.102 36.875C370.102 39.974 371.195 42.6302 373.383 44.8438C375.596 47.0312 378.253 48.125 381.352 48.125C384.451 48.125 387.094 47.0312 389.281 44.8438C391.495 42.6302 392.602 39.974 392.602 36.875C392.602 33.776 391.495 31.1328 389.281 28.9453C387.094 26.7318 384.451 25.625 381.352 25.625C378.253 25.625 375.596 26.7318 373.383 28.9453ZM371.391 46.8359C368.656 44.0755 367.289 40.7552 367.289 36.875C367.289 32.9948 368.656 29.6875 371.391 26.9531C374.151 24.1927 377.471 22.8125 381.352 22.8125C385.232 22.8125 388.539 24.1927 391.273 26.9531C394.034 29.6875 395.414 32.9948 395.414 36.875C395.414 40.7552 394.034 44.0755 391.273 46.8359C388.539 49.5703 385.232 50.9375 381.352 50.9375C377.471 50.9375 374.151 49.5703 371.391 46.8359ZM369.398 24.9609C366.117 28.2682 364.477 32.2396 364.477 36.875C364.477 41.5104 366.117 45.4818 369.398 48.7891C372.706 52.0964 376.69 53.75 381.352 53.75C386.013 53.75 389.984 52.0964 393.266 48.7891C396.573 45.4818 398.227 41.5104 398.227 36.875C398.227 32.2396 396.573 28.2682 393.266 24.9609C389.984 21.6536 386.013 20 381.352 20C376.69 20 372.706 21.6536 369.398 24.9609ZM364.281 46.7578C362.536 43.737 361.664 40.4427 361.664 36.875C361.664 33.3073 362.536 30.013 364.281 26.9922C366.052 23.9714 368.448 21.5885 371.469 19.8438C374.49 18.0729 377.784 17.1875 381.352 17.1875C384.919 17.1875 388.214 18.0729 391.234 19.8438C394.255 21.5885 396.638 23.9714 398.383 26.9922C400.154 30.013 401.039 33.3073 401.039 36.875C401.039 40.4427 400.154 43.737 398.383 46.7578C396.638 49.7786 394.255 52.1745 391.234 53.9453C388.214 55.6901 384.919 56.5625 381.352 56.5625C377.784 56.5625 374.49 55.6901 371.469 53.9453C368.448 52.1745 366.052 49.7786 364.281 46.7578ZM360.609 28.1641C359.438 30.9245 358.852 33.8281 358.852 36.875C358.852 39.9219 359.438 42.8385 360.609 45.625C361.807 48.3854 363.409 50.7812 365.414 52.8125C367.445 54.8177 369.841 56.4193 372.602 57.6172C375.388 58.7891 378.305 59.375 381.352 59.375C384.398 59.375 387.302 58.7891 390.062 57.6172C392.849 56.4193 395.245 54.8177 397.25 52.8125C399.281 50.7812 400.883 48.3854 402.055 45.625C403.253 42.8385 403.852 39.9219 403.852 36.875C403.852 33.8281 403.253 30.9245 402.055 28.1641C400.883 25.3776 399.281 22.9818 397.25 20.9766C395.245 18.9453 392.849 17.3438 390.062 16.1719C387.302 14.974 384.398 14.375 381.352 14.375C378.305 14.375 375.388 14.974 372.602 16.1719C369.841 17.3438 367.445 18.9453 365.414 20.9766C363.409 22.9818 361.807 25.3776 360.609 28.1641ZM358.031 46.7188C356.703 43.5938 356.039 40.3125 356.039 36.875C356.039 33.4375 356.703 30.1562 358.031 27.0312C359.385 23.9062 361.182 21.224 363.422 18.9844C365.688 16.7188 368.383 14.9219 371.508 13.5938C374.633 12.2396 377.914 11.5625 381.352 11.5625C384.789 11.5625 388.07 12.2396 391.195 13.5938C394.32 14.9219 397.003 16.7188 399.242 18.9844C401.508 21.224 403.305 23.9062 404.633 27.0312C405.987 30.1562 406.664 33.4375 406.664 36.875C406.664 40.3125 405.987 43.5938 404.633 46.7188C403.305 49.8438 401.508 52.5391 399.242 54.8047C397.003 57.0443 394.32 58.8411 391.195 60.1953C388.07 61.5234 384.789 62.1875 381.352 62.1875C377.914 62.1875 374.633 61.5234 371.508 60.1953C368.383 58.8411 365.688 57.0443 363.422 54.8047C361.182 52.5391 359.385 49.8438 358.031 46.7188ZM355.453 25.9766C353.969 29.4401 353.227 33.0729 353.227 36.875C353.227 40.6771 353.969 44.3229 355.453 47.8125C356.938 51.276 358.93 54.2708 361.43 56.7969C363.956 59.2969 366.951 61.2891 370.414 62.7734C373.904 64.2578 377.549 65 381.352 65C385.154 65 388.786 64.2578 392.25 62.7734C395.74 61.2891 398.734 59.2969 401.234 56.7969C403.76 54.2708 405.766 51.276 407.25 47.8125C408.734 44.3229 409.477 40.6771 409.477 36.875C409.477 33.0729 408.734 29.4401 407.25 25.9766C405.766 22.487 403.76 19.4922 401.234 16.9922C398.734 14.4661 395.74 12.4609 392.25 10.9766C388.786 9.49219 385.154 8.75 381.352 8.75C377.549 8.75 373.904 9.49219 370.414 10.9766C366.951 12.4609 363.956 14.4661 361.43 16.9922C358.93 19.4922 356.938 22.487 355.453 25.9766ZM352.875 48.9062C351.234 45.0781 350.414 41.0677 350.414 36.875C350.414 32.6823 351.234 28.6849 352.875 24.8828C354.516 21.0547 356.716 17.7604 359.477 15C362.237 12.2396 365.518 10.0391 369.32 8.39844C373.148 6.75781 377.159 5.9375 381.352 5.9375C385.544 5.9375 389.542 6.75781 393.344 8.39844C397.172 10.0391 400.466 12.2396 403.227 15C405.987 17.7604 408.188 21.0547 409.828 24.8828C411.469 28.6849 412.289 32.6823 412.289 36.875C412.289 41.0677 411.469 45.0781 409.828 48.9062C408.188 52.7083 405.987 55.9896 403.227 58.75C400.466 61.5104 397.172 63.7109 393.344 65.3516C389.542 66.9922 385.544 67.8125 381.352 67.8125C377.159 67.8125 373.148 66.9922 369.32 65.3516C365.518 63.7109 362.237 61.5104 359.477 58.75C356.716 55.9896 354.516 52.7083 352.875 48.9062ZM445.961 28.9453C443.773 31.1328 442.68 33.776 442.68 36.875C442.68 39.974 443.773 42.6302 445.961 44.8438C448.174 47.0312 450.831 48.125 453.93 48.125C457.029 48.125 459.672 47.0312 461.859 44.8438C464.073 42.6302 465.18 39.974 465.18 36.875C465.18 33.776 464.073 31.1328 461.859 28.9453C459.672 26.7318 457.029 25.625 453.93 25.625C450.831 25.625 448.174 26.7318 445.961 28.9453ZM443.969 46.8359C441.234 44.0755 439.867 40.7552 439.867 36.875C439.867 32.9948 441.234 29.6875 443.969 26.9531C446.729 24.1927 450.049 22.8125 453.93 22.8125C457.81 22.8125 461.117 24.1927 463.852 26.9531C466.612 29.6875 467.992 32.9948 467.992 36.875C467.992 40.7552 466.612 44.0755 463.852 46.8359C461.117 49.5703 457.81 50.9375 453.93 50.9375C450.049 50.9375 446.729 49.5703 443.969 46.8359ZM441.977 24.9609C438.695 28.2682 437.055 32.2396 437.055 36.875C437.055 41.5104 438.695 45.4818 441.977 48.7891C445.284 52.0964 449.268 53.75 453.93 53.75C458.591 53.75 462.562 52.0964 465.844 48.7891C469.151 45.4818 470.805 41.5104 470.805 36.875C470.805 32.2396 469.151 28.2682 465.844 24.9609C462.562 21.6536 458.591 20 453.93 20C449.268 20 445.284 21.6536 441.977 24.9609ZM436.859 46.7578C435.115 43.737 434.242 40.4427 434.242 36.875C434.242 33.3073 435.115 30.013 436.859 26.9922C438.63 23.9714 441.026 21.5885 444.047 19.8438C447.068 18.0729 450.362 17.1875 453.93 17.1875C457.497 17.1875 460.792 18.0729 463.812 19.8438C466.833 21.5885 469.216 23.9714 470.961 26.9922C472.732 30.013 473.617 33.3073 473.617 36.875C473.617 40.4427 472.732 43.737 470.961 46.7578C469.216 49.7786 466.833 52.1745 463.812 53.9453C460.792 55.6901 457.497 56.5625 453.93 56.5625C450.362 56.5625 447.068 55.6901 444.047 53.9453C441.026 52.1745 438.63 49.7786 436.859 46.7578ZM433.188 28.1641C432.016 30.9245 431.43 33.8281 431.43 36.875C431.43 39.9219 432.016 42.8385 433.188 45.625C434.385 48.3854 435.987 50.7812 437.992 52.8125C440.023 54.8177 442.419 56.4193 445.18 57.6172C447.966 58.7891 450.883 59.375 453.93 59.375C456.977 59.375 459.88 58.7891 462.641 57.6172C465.427 56.4193 467.823 54.8177 469.828 52.8125C471.859 50.7812 473.461 48.3854 474.633 45.625C475.831 42.8385 476.43 39.9219 476.43 36.875C476.43 33.8281 475.831 30.9245 474.633 28.1641C473.461 25.3776 471.859 22.9818 469.828 20.9766C467.823 18.9453 465.427 17.3438 462.641 16.1719C459.88 14.974 456.977 14.375 453.93 14.375C450.883 14.375 447.966 14.974 445.18 16.1719C442.419 17.3438 440.023 18.9453 437.992 20.9766C435.987 22.9818 434.385 25.3776 433.188 28.1641ZM430.609 46.7188C429.281 43.5938 428.617 40.3125 428.617 36.875C428.617 33.4375 429.281 30.1562 430.609 27.0312C431.964 23.9062 433.76 21.224 436 18.9844C438.266 16.7188 440.961 14.9219 444.086 13.5938C447.211 12.2396 450.492 11.5625 453.93 11.5625C457.367 11.5625 460.648 12.2396 463.773 13.5938C466.898 14.9219 469.581 16.7188 471.82 18.9844C474.086 21.224 475.883 23.9062 477.211 27.0312C478.565 30.1562 479.242 33.4375 479.242 36.875C479.242 40.3125 478.565 43.5938 477.211 46.7188C475.883 49.8438 474.086 52.5391 471.82 54.8047C469.581 57.0443 466.898 58.8411 463.773 60.1953C460.648 61.5234 457.367 62.1875 453.93 62.1875C450.492 62.1875 447.211 61.5234 444.086 60.1953C440.961 58.8411 438.266 57.0443 436 54.8047C433.76 52.5391 431.964 49.8438 430.609 46.7188ZM428.031 25.9766C426.547 29.4401 425.805 33.0729 425.805 36.875C425.805 40.6771 426.547 44.3229 428.031 47.8125C429.516 51.276 431.508 54.2708 434.008 56.7969C436.534 59.2969 439.529 61.2891 442.992 62.7734C446.482 64.2578 450.128 65 453.93 65C457.732 65 461.365 64.2578 464.828 62.7734C468.318 61.2891 471.312 59.2969 473.812 56.7969C476.339 54.2708 478.344 51.276 479.828 47.8125C481.312 44.3229 482.055 40.6771 482.055 36.875C482.055 33.0729 481.312 29.4401 479.828 25.9766C478.344 22.487 476.339 19.4922 473.812 16.9922C471.312 14.4661 468.318 12.4609 464.828 10.9766C461.365 9.49219 457.732 8.75 453.93 8.75C450.128 8.75 446.482 9.49219 442.992 10.9766C439.529 12.4609 436.534 14.4661 434.008 16.9922C431.508 19.4922 429.516 22.487 428.031 25.9766ZM425.453 48.9062C423.812 45.0781 422.992 41.0677 422.992 36.875C422.992 32.6823 423.812 28.6849 425.453 24.8828C427.094 21.0547 429.294 17.7604 432.055 15C434.815 12.2396 438.096 10.0391 441.898 8.39844C445.727 6.75781 449.737 5.9375 453.93 5.9375C458.122 5.9375 462.12 6.75781 465.922 8.39844C469.75 10.0391 473.044 12.2396 475.805 15C478.565 17.7604 480.766 21.0547 482.406 24.8828C484.047 28.6849 484.867 32.6823 484.867 36.875C484.867 41.0677 484.047 45.0781 482.406 48.9062C480.766 52.7083 478.565 55.9896 475.805 58.75C473.044 61.5104 469.75 63.7109 465.922 65.3516C462.12 66.9922 458.122 67.8125 453.93 67.8125C449.737 67.8125 445.727 66.9922 441.898 65.3516C438.096 63.7109 434.815 61.5104 432.055 58.75C429.294 55.9896 427.094 52.7083 425.453 48.9062ZM527.133 29.8438V65H524.32V29.8438C524.32 29.0885 524.19 28.4505 523.93 27.9297C523.695 27.3828 523.383 26.9661 522.992 26.6797C522.602 26.3932 522.081 26.1719 521.43 26.0156C520.805 25.8333 520.193 25.7292 519.594 25.7031C518.995 25.651 518.253 25.625 517.367 25.625C516.482 25.625 515.74 25.651 515.141 25.7031C514.542 25.7292 513.917 25.8333 513.266 26.0156C512.641 26.1719 512.133 26.3932 511.742 26.6797C511.352 26.9661 511.026 27.3828 510.766 27.9297C510.531 28.4505 510.414 29.0885 510.414 29.8438V65H507.602V29.8438C507.602 25.1562 510.857 22.8125 517.367 22.8125C523.878 22.8125 527.133 25.1562 527.133 29.8438ZM532.758 29.8438V65H529.945V29.8438C529.945 26.5365 528.773 24.0755 526.43 22.4609C524.112 20.8203 521.091 20 517.367 20C513.643 20 510.609 20.8203 508.266 22.4609C505.948 24.0755 504.789 26.5365 504.789 29.8438V65H501.977V29.8438C501.977 27.1094 502.68 24.7656 504.086 22.8125C505.492 20.8594 507.328 19.4401 509.594 18.5547C511.885 17.6432 514.477 17.1875 517.367 17.1875C520.258 17.1875 522.836 17.6432 525.102 18.5547C527.393 19.4401 529.242 20.8594 530.648 22.8125C532.055 24.7656 532.758 27.1094 532.758 29.8438ZM538.383 29.8438V65H535.57V29.8438C535.57 27.3958 535.089 25.1823 534.125 23.2031C533.188 21.224 531.885 19.5964 530.219 18.3203C528.552 17.0443 526.625 16.0677 524.438 15.3906C522.25 14.7135 519.893 14.375 517.367 14.375C514.841 14.375 512.484 14.7135 510.297 15.3906C508.109 16.0677 506.182 17.0443 504.516 18.3203C502.849 19.5964 501.534 21.224 500.57 23.2031C499.633 25.1823 499.164 27.3958 499.164 29.8438V65H496.352V29.8438C496.352 27.0052 496.898 24.4271 497.992 22.1094C499.112 19.7917 500.622 17.8776 502.523 16.3672C504.424 14.8307 506.651 13.6458 509.203 12.8125C511.755 11.9792 514.477 11.5625 517.367 11.5625C520.258 11.5625 522.979 11.9792 525.531 12.8125C528.083 13.6458 530.31 14.8307 532.211 16.3672C534.112 17.8776 535.609 19.7917 536.703 22.1094C537.823 24.4271 538.383 27.0052 538.383 29.8438ZM544.008 65H541.195V29.8438C541.195 27.0052 540.557 24.2839 539.281 21.6797C538.031 19.0755 536.339 16.8359 534.203 14.9609C532.068 13.0599 529.529 11.5495 526.586 10.4297C523.643 9.3099 520.57 8.75 517.367 8.75C512.966 8.75 508.969 9.58333 505.375 11.25C501.807 12.8906 498.943 15.3385 496.781 18.5938C494.62 21.8229 493.539 25.5729 493.539 29.8438V65H490.727V29.8438C490.727 26.25 491.43 22.9427 492.836 19.9219C494.242 16.901 496.143 14.375 498.539 12.3438C500.961 10.3125 503.786 8.73698 507.016 7.61719C510.271 6.4974 513.721 5.9375 517.367 5.9375C523.826 5.9375 529.424 7.5651 534.164 10.8203C538.904 7.5651 544.503 5.9375 550.961 5.9375C554.607 5.9375 558.044 6.4974 561.273 7.61719C564.529 8.73698 567.354 10.3125 569.75 12.3438C572.172 14.375 574.086 16.901 575.492 19.9219C576.898 22.9427 577.602 26.25 577.602 29.8438V65H574.789V29.8438C574.789 25.599 573.708 21.862 571.547 18.6328C569.385 15.3776 566.508 12.9167 562.914 11.25C559.346 9.58333 555.362 8.75 550.961 8.75C545.44 8.75 540.622 10.0521 536.508 12.6562C537.107 13.1771 537.771 13.8542 538.5 14.6875C542.068 12.6042 546.221 11.5625 550.961 11.5625C553.852 11.5625 556.573 11.9792 559.125 12.8125C561.677 13.6458 563.904 14.8307 565.805 16.3672C567.706 17.8776 569.203 19.7917 570.297 22.1094C571.417 24.4271 571.977 27.0052 571.977 29.8438V65H569.164V29.8438C569.164 27.3958 568.682 25.1823 567.719 23.2031C566.781 21.224 565.479 19.5964 563.812 18.3203C562.146 17.0443 560.219 16.0677 558.031 15.3906C555.844 14.7135 553.487 14.375 550.961 14.375C546.82 14.375 543.24 15.2214 540.219 16.9141C540.688 17.6432 541.156 18.4505 541.625 19.3359C544.177 17.9036 547.289 17.1875 550.961 17.1875C553.852 17.1875 556.43 17.6432 558.695 18.5547C560.987 19.4401 562.836 20.8594 564.242 22.8125C565.648 24.7656 566.352 27.1094 566.352 29.8438V65H563.539V29.8438C563.539 26.5365 562.367 24.0755 560.023 22.4609C557.706 20.8203 554.685 20 550.961 20C547.576 20 544.828 20.625 542.719 21.875C543.057 22.8646 543.318 23.8021 543.5 24.6875C545.141 23.4375 547.628 22.8125 550.961 22.8125C557.471 22.8125 560.727 25.1562 560.727 29.8438V65H557.914V29.8438C557.914 29.0885 557.784 28.4505 557.523 27.9297C557.289 27.3828 556.977 26.9661 556.586 26.6797C556.195 26.3932 555.674 26.1719 555.023 26.0156C554.398 25.8333 553.786 25.7292 553.188 25.7031C552.589 25.651 551.846 25.625 550.961 25.625C550.076 25.625 549.333 25.651 548.734 25.7031C548.135 25.7292 547.51 25.8333 546.859 26.0156C546.234 26.1719 545.727 26.3932 545.336 26.6797C544.945 26.9661 544.62 27.3828 544.359 27.9297C544.125 28.4505 544.008 29.0885 544.008 29.8438V65ZM627.602 42.4609C627.602 41.4453 627.289 40.7682 626.664 40.4297C626.065 40.0911 625.18 39.9219 624.008 39.9219H605.883V37.1094H624.008C628.279 37.1094 630.414 38.8932 630.414 42.4609C630.414 44.4661 629.828 45.9115 628.656 46.7969C627.484 47.6823 625.935 48.125 624.008 48.125H605.883V45.3125H624.008C626.404 45.3125 627.602 44.362 627.602 42.4609ZM604.32 65H601.508V17.1875H624.008C625.779 17.1875 627.289 17.7344 628.539 18.8281C629.789 19.8958 630.414 21.237 630.414 22.8516C630.414 24.987 629.828 26.5365 628.656 27.5C627.484 28.4375 625.935 28.9062 624.008 28.9062H605.883V26.0938H624.008C626.404 26.0938 627.602 25.013 627.602 22.8516C627.602 21.9661 627.263 21.276 626.586 20.7812C625.909 20.2604 625.049 20 624.008 20H604.32V65ZM605.883 31.7188H624.008C626.586 31.7188 628.76 30.9505 630.531 29.4141C632.328 27.8516 633.227 25.6641 633.227 22.8516C633.227 20.5859 632.289 18.6068 630.414 16.9141C628.565 15.2214 626.43 14.375 624.008 14.375H598.695V65H595.883V11.5625H624.008C627.211 11.5625 630.01 12.6953 632.406 14.9609C634.828 17.2005 636.039 19.8307 636.039 22.8516C636.039 25.2214 635.479 27.2917 634.359 29.0625C633.266 30.8333 631.781 32.2005 629.906 33.1641C633.995 34.6224 636.039 37.5911 636.039 42.0703C636.039 45.612 634.867 48.4505 632.523 50.5859C630.18 52.6953 627.341 53.75 624.008 53.75H605.883V50.9375H624.008C626.586 50.9375 628.76 50.1693 630.531 48.6328C632.328 47.0703 633.227 44.8828 633.227 42.0703C633.227 40.1693 632.549 38.4896 631.195 37.0312C629.841 35.5729 627.849 34.7266 625.219 34.4922C624.958 34.5182 624.555 34.5312 624.008 34.5312H605.883V31.7188ZM641.664 22.8516C641.664 26.4974 640.375 29.7917 637.797 32.7344C640.375 35.599 641.664 38.7109 641.664 42.0703C641.664 45.3255 640.844 48.2943 639.203 50.9766C637.589 53.6328 635.427 55.7031 632.719 57.1875C630.036 58.6458 627.133 59.375 624.008 59.375H605.883V56.5625H624.008C628.07 56.5625 631.56 55.2083 634.477 52.5C637.393 49.7656 638.852 46.2891 638.852 42.0703C638.852 40.5599 638.461 38.8932 637.68 37.0703C636.924 35.2214 635.87 33.8151 634.516 32.8516C637.406 30.1432 638.852 26.8099 638.852 22.8516C638.852 19.0495 637.367 15.7552 634.398 12.9688C631.43 10.1562 627.966 8.75 624.008 8.75H593.07V65H590.258V5.9375H624.008C627.107 5.9375 630.01 6.70573 632.719 8.24219C635.453 9.7526 637.628 11.8229 639.242 14.4531C640.857 17.0573 641.664 19.8568 641.664 22.8516ZM641 32.8906C643.318 29.7917 644.477 26.4453 644.477 22.8516C644.477 19.3359 643.539 16.0677 641.664 13.0469C639.815 10 637.315 7.59115 634.164 5.82031C631.013 4.02344 627.628 3.125 624.008 3.125H587.445V65H584.633V0.3125H624.008C628.122 0.3125 631.964 1.32812 635.531 3.35938C639.125 5.39062 641.977 8.15104 644.086 11.6406C646.221 15.1042 647.289 18.8411 647.289 22.8516C647.289 26.6797 646.208 30.0391 644.047 32.9297C646.208 35.9245 647.289 38.9714 647.289 42.0703C647.289 45.5599 646.664 48.763 645.414 51.6797C644.164 54.5703 642.471 56.9792 640.336 58.9062C638.227 60.8333 635.766 62.3307 632.953 63.3984C630.141 64.4661 627.159 65 624.008 65H605.883V62.1875H624.008C626.742 62.1875 629.359 61.6797 631.859 60.6641C634.359 59.6224 636.534 58.2161 638.383 56.4453C640.232 54.6745 641.703 52.5391 642.797 50.0391C643.917 47.5391 644.477 44.8828 644.477 42.0703C644.477 40.8203 644.177 39.3229 643.578 37.5781C643.005 35.8073 642.146 34.2448 641 32.8906ZM675.102 28.9453C672.914 31.1328 671.82 33.776 671.82 36.875C671.82 39.974 672.914 42.6302 675.102 44.8438C677.315 47.0312 679.971 48.125 683.07 48.125C686.169 48.125 688.812 47.0312 691 44.8438C693.214 42.6302 694.32 39.974 694.32 36.875C694.32 33.776 693.214 31.1328 691 28.9453C688.812 26.7318 686.169 25.625 683.07 25.625C679.971 25.625 677.315 26.7318 675.102 28.9453ZM673.109 46.8359C670.375 44.0755 669.008 40.7552 669.008 36.875C669.008 32.9948 670.375 29.6875 673.109 26.9531C675.87 24.1927 679.19 22.8125 683.07 22.8125C686.951 22.8125 690.258 24.1927 692.992 26.9531C695.753 29.6875 697.133 32.9948 697.133 36.875C697.133 40.7552 695.753 44.0755 692.992 46.8359C690.258 49.5703 686.951 50.9375 683.07 50.9375C679.19 50.9375 675.87 49.5703 673.109 46.8359ZM671.117 24.9609C667.836 28.2682 666.195 32.2396 666.195 36.875C666.195 41.5104 667.836 45.4818 671.117 48.7891C674.424 52.0964 678.409 53.75 683.07 53.75C687.732 53.75 691.703 52.0964 694.984 48.7891C698.292 45.4818 699.945 41.5104 699.945 36.875C699.945 32.2396 698.292 28.2682 694.984 24.9609C691.703 21.6536 687.732 20 683.07 20C678.409 20 674.424 21.6536 671.117 24.9609ZM666 46.7578C664.255 43.737 663.383 40.4427 663.383 36.875C663.383 33.3073 664.255 30.013 666 26.9922C667.771 23.9714 670.167 21.5885 673.188 19.8438C676.208 18.0729 679.503 17.1875 683.07 17.1875C686.638 17.1875 689.932 18.0729 692.953 19.8438C695.974 21.5885 698.357 23.9714 700.102 26.9922C701.872 30.013 702.758 33.3073 702.758 36.875C702.758 40.4427 701.872 43.737 700.102 46.7578C698.357 49.7786 695.974 52.1745 692.953 53.9453C689.932 55.6901 686.638 56.5625 683.07 56.5625C679.503 56.5625 676.208 55.6901 673.188 53.9453C670.167 52.1745 667.771 49.7786 666 46.7578ZM662.328 28.1641C661.156 30.9245 660.57 33.8281 660.57 36.875C660.57 39.9219 661.156 42.8385 662.328 45.625C663.526 48.3854 665.128 50.7812 667.133 52.8125C669.164 54.8177 671.56 56.4193 674.32 57.6172C677.107 58.7891 680.023 59.375 683.07 59.375C686.117 59.375 689.021 58.7891 691.781 57.6172C694.568 56.4193 696.964 54.8177 698.969 52.8125C701 50.7812 702.602 48.3854 703.773 45.625C704.971 42.8385 705.57 39.9219 705.57 36.875C705.57 33.8281 704.971 30.9245 703.773 28.1641C702.602 25.3776 701 22.9818 698.969 20.9766C696.964 18.9453 694.568 17.3438 691.781 16.1719C689.021 14.974 686.117 14.375 683.07 14.375C680.023 14.375 677.107 14.974 674.32 16.1719C671.56 17.3438 669.164 18.9453 667.133 20.9766C665.128 22.9818 663.526 25.3776 662.328 28.1641ZM659.75 46.7188C658.422 43.5938 657.758 40.3125 657.758 36.875C657.758 33.4375 658.422 30.1562 659.75 27.0312C661.104 23.9062 662.901 21.224 665.141 18.9844C667.406 16.7188 670.102 14.9219 673.227 13.5938C676.352 12.2396 679.633 11.5625 683.07 11.5625C686.508 11.5625 689.789 12.2396 692.914 13.5938C696.039 14.9219 698.721 16.7188 700.961 18.9844C703.227 21.224 705.023 23.9062 706.352 27.0312C707.706 30.1562 708.383 33.4375 708.383 36.875C708.383 40.3125 707.706 43.5938 706.352 46.7188C705.023 49.8438 703.227 52.5391 700.961 54.8047C698.721 57.0443 696.039 58.8411 692.914 60.1953C689.789 61.5234 686.508 62.1875 683.07 62.1875C679.633 62.1875 676.352 61.5234 673.227 60.1953C670.102 58.8411 667.406 57.0443 665.141 54.8047C662.901 52.5391 661.104 49.8438 659.75 46.7188ZM657.172 25.9766C655.688 29.4401 654.945 33.0729 654.945 36.875C654.945 40.6771 655.688 44.3229 657.172 47.8125C658.656 51.276 660.648 54.2708 663.148 56.7969C665.674 59.2969 668.669 61.2891 672.133 62.7734C675.622 64.2578 679.268 65 683.07 65C686.872 65 690.505 64.2578 693.969 62.7734C697.458 61.2891 700.453 59.2969 702.953 56.7969C705.479 54.2708 707.484 51.276 708.969 47.8125C710.453 44.3229 711.195 40.6771 711.195 36.875C711.195 33.0729 710.453 29.4401 708.969 25.9766C707.484 22.487 705.479 19.4922 702.953 16.9922C700.453 14.4661 697.458 12.4609 693.969 10.9766C690.505 9.49219 686.872 8.75 683.07 8.75C679.268 8.75 675.622 9.49219 672.133 10.9766C668.669 12.4609 665.674 14.4661 663.148 16.9922C660.648 19.4922 658.656 22.487 657.172 25.9766ZM654.594 48.9062C652.953 45.0781 652.133 41.0677 652.133 36.875C652.133 32.6823 652.953 28.6849 654.594 24.8828C656.234 21.0547 658.435 17.7604 661.195 15C663.956 12.2396 667.237 10.0391 671.039 8.39844C674.867 6.75781 678.878 5.9375 683.07 5.9375C687.263 5.9375 691.26 6.75781 695.062 8.39844C698.891 10.0391 702.185 12.2396 704.945 15C707.706 17.7604 709.906 21.0547 711.547 24.8828C713.188 28.6849 714.008 32.6823 714.008 36.875C714.008 41.0677 713.188 45.0781 711.547 48.9062C709.906 52.7083 707.706 55.9896 704.945 58.75C702.185 61.5104 698.891 63.7109 695.062 65.3516C691.26 66.9922 687.263 67.8125 683.07 67.8125C678.878 67.8125 674.867 66.9922 671.039 65.3516C667.237 63.7109 663.956 61.5104 661.195 58.75C658.435 55.9896 656.234 52.7083 654.594 48.9062ZM747.68 28.9453C745.492 31.1328 744.398 33.776 744.398 36.875C744.398 39.974 745.492 42.6302 747.68 44.8438C749.893 47.0312 752.549 48.125 755.648 48.125C758.747 48.125 761.391 47.0312 763.578 44.8438C765.792 42.6302 766.898 39.974 766.898 36.875C766.898 33.776 765.792 31.1328 763.578 28.9453C761.391 26.7318 758.747 25.625 755.648 25.625C752.549 25.625 749.893 26.7318 747.68 28.9453ZM745.688 46.8359C742.953 44.0755 741.586 40.7552 741.586 36.875C741.586 32.9948 742.953 29.6875 745.688 26.9531C748.448 24.1927 751.768 22.8125 755.648 22.8125C759.529 22.8125 762.836 24.1927 765.57 26.9531C768.331 29.6875 769.711 32.9948 769.711 36.875C769.711 40.7552 768.331 44.0755 765.57 46.8359C762.836 49.5703 759.529 50.9375 755.648 50.9375C751.768 50.9375 748.448 49.5703 745.688 46.8359ZM743.695 24.9609C740.414 28.2682 738.773 32.2396 738.773 36.875C738.773 41.5104 740.414 45.4818 743.695 48.7891C747.003 52.0964 750.987 53.75 755.648 53.75C760.31 53.75 764.281 52.0964 767.562 48.7891C770.87 45.4818 772.523 41.5104 772.523 36.875C772.523 32.2396 770.87 28.2682 767.562 24.9609C764.281 21.6536 760.31 20 755.648 20C750.987 20 747.003 21.6536 743.695 24.9609ZM738.578 46.7578C736.833 43.737 735.961 40.4427 735.961 36.875C735.961 33.3073 736.833 30.013 738.578 26.9922C740.349 23.9714 742.745 21.5885 745.766 19.8438C748.786 18.0729 752.081 17.1875 755.648 17.1875C759.216 17.1875 762.51 18.0729 765.531 19.8438C768.552 21.5885 770.935 23.9714 772.68 26.9922C774.451 30.013 775.336 33.3073 775.336 36.875C775.336 40.4427 774.451 43.737 772.68 46.7578C770.935 49.7786 768.552 52.1745 765.531 53.9453C762.51 55.6901 759.216 56.5625 755.648 56.5625C752.081 56.5625 748.786 55.6901 745.766 53.9453C742.745 52.1745 740.349 49.7786 738.578 46.7578ZM734.906 28.1641C733.734 30.9245 733.148 33.8281 733.148 36.875C733.148 39.9219 733.734 42.8385 734.906 45.625C736.104 48.3854 737.706 50.7812 739.711 52.8125C741.742 54.8177 744.138 56.4193 746.898 57.6172C749.685 58.7891 752.602 59.375 755.648 59.375C758.695 59.375 761.599 58.7891 764.359 57.6172C767.146 56.4193 769.542 54.8177 771.547 52.8125C773.578 50.7812 775.18 48.3854 776.352 45.625C777.549 42.8385 778.148 39.9219 778.148 36.875C778.148 33.8281 777.549 30.9245 776.352 28.1641C775.18 25.3776 773.578 22.9818 771.547 20.9766C769.542 18.9453 767.146 17.3438 764.359 16.1719C761.599 14.974 758.695 14.375 755.648 14.375C752.602 14.375 749.685 14.974 746.898 16.1719C744.138 17.3438 741.742 18.9453 739.711 20.9766C737.706 22.9818 736.104 25.3776 734.906 28.1641ZM732.328 46.7188C731 43.5938 730.336 40.3125 730.336 36.875C730.336 33.4375 731 30.1562 732.328 27.0312C733.682 23.9062 735.479 21.224 737.719 18.9844C739.984 16.7188 742.68 14.9219 745.805 13.5938C748.93 12.2396 752.211 11.5625 755.648 11.5625C759.086 11.5625 762.367 12.2396 765.492 13.5938C768.617 14.9219 771.299 16.7188 773.539 18.9844C775.805 21.224 777.602 23.9062 778.93 27.0312C780.284 30.1562 780.961 33.4375 780.961 36.875C780.961 40.3125 780.284 43.5938 778.93 46.7188C777.602 49.8438 775.805 52.5391 773.539 54.8047C771.299 57.0443 768.617 58.8411 765.492 60.1953C762.367 61.5234 759.086 62.1875 755.648 62.1875C752.211 62.1875 748.93 61.5234 745.805 60.1953C742.68 58.8411 739.984 57.0443 737.719 54.8047C735.479 52.5391 733.682 49.8438 732.328 46.7188ZM729.75 25.9766C728.266 29.4401 727.523 33.0729 727.523 36.875C727.523 40.6771 728.266 44.3229 729.75 47.8125C731.234 51.276 733.227 54.2708 735.727 56.7969C738.253 59.2969 741.247 61.2891 744.711 62.7734C748.201 64.2578 751.846 65 755.648 65C759.451 65 763.083 64.2578 766.547 62.7734C770.036 61.2891 773.031 59.2969 775.531 56.7969C778.057 54.2708 780.062 51.276 781.547 47.8125C783.031 44.3229 783.773 40.6771 783.773 36.875C783.773 33.0729 783.031 29.4401 781.547 25.9766C780.062 22.487 778.057 19.4922 775.531 16.9922C773.031 14.4661 770.036 12.4609 766.547 10.9766C763.083 9.49219 759.451 8.75 755.648 8.75C751.846 8.75 748.201 9.49219 744.711 10.9766C741.247 12.4609 738.253 14.4661 735.727 16.9922C733.227 19.4922 731.234 22.487 729.75 25.9766ZM727.172 48.9062C725.531 45.0781 724.711 41.0677 724.711 36.875C724.711 32.6823 725.531 28.6849 727.172 24.8828C728.812 21.0547 731.013 17.7604 733.773 15C736.534 12.2396 739.815 10.0391 743.617 8.39844C747.445 6.75781 751.456 5.9375 755.648 5.9375C759.841 5.9375 763.839 6.75781 767.641 8.39844C771.469 10.0391 774.763 12.2396 777.523 15C780.284 17.7604 782.484 21.0547 784.125 24.8828C785.766 28.6849 786.586 32.6823 786.586 36.875C786.586 41.0677 785.766 45.0781 784.125 48.9062C782.484 52.7083 780.284 55.9896 777.523 58.75C774.763 61.5104 771.469 63.7109 767.641 65.3516C763.839 66.9922 759.841 67.8125 755.648 67.8125C751.456 67.8125 747.445 66.9922 743.617 65.3516C739.815 63.7109 736.534 61.5104 733.773 58.75C731.013 55.9896 728.812 52.7083 727.172 48.9062ZM852.016 8.75L836.352 37.1094L851.781 65H848.656L833.227 37.1094L848.891 8.75H852.016ZM845.727 8.75L830.062 37.1094L845.492 65H842.367L826.938 37.1094L842.602 8.75H845.727ZM839.438 8.75L823.773 37.1094L839.203 65H836.078L820.648 37.1094L836.312 8.75H839.438ZM833.148 8.75L817.445 37.1094L832.914 65H829.789L814.32 37.1094L830.023 8.75H833.148ZM809.789 8.75V65H812.602V8.75H809.789ZM804.164 8.75V65H806.977V8.75H804.164ZM798.539 8.75V65H801.352V8.75H798.539ZM792.914 8.75V65H795.727V8.75H792.914ZM871.117 65H868.305V8.75H871.117V65ZM865.492 65H862.68V8.75H865.492V65ZM859.867 65H857.055V8.75H859.867V65ZM876.742 50.9375H903.656V53.75H876.742V56.5625H903.656V59.375H876.742V62.1875H903.656V65H873.93V8.75H903.656V11.5625H876.742V14.375H903.656V17.1875H876.742V20H903.656V22.8125H876.742V29.8047H902.094V32.6172H876.742V35.4297H902.094V38.2422H876.742V41.0547H902.094V43.8672H876.742V50.9375ZM931.664 38.125H948.617C950.857 38.125 952.758 37.4219 954.32 36.0156C955.883 34.6094 956.664 32.6302 956.664 30.0781C956.664 28.2031 955.844 26.5234 954.203 25.0391C952.589 23.5547 950.727 22.8125 948.617 22.8125H924.477V65H921.664V20H948.617C951.508 20 954.034 21.0156 956.195 23.0469C958.383 25.0781 959.477 27.4219 959.477 30.0781C959.477 33.3854 958.422 36.0286 956.312 38.0078C954.203 39.9609 951.638 40.9375 948.617 40.9375H931.664V38.125ZM931.664 43.75H948.617C952.367 43.75 955.583 42.474 958.266 39.9219C960.948 37.3698 962.289 34.0885 962.289 30.0781C962.289 26.6667 960.922 23.6719 958.188 21.0938C955.453 18.4896 952.263 17.1875 948.617 17.1875H918.852V65H916.039V14.375H948.617C953.044 14.375 956.898 15.9505 960.18 19.1016C963.461 22.2266 965.102 25.8854 965.102 30.0781C965.102 34.7656 963.474 38.6849 960.219 41.8359C956.99 44.987 953.122 46.5625 948.617 46.5625H931.664V43.75ZM931.664 49.375H948.617C952.081 49.375 955.284 48.5417 958.227 46.875C961.169 45.2083 963.513 42.8906 965.258 39.9219C967.029 36.9531 967.914 33.6719 967.914 30.0781C967.914 26.8229 967.042 23.776 965.297 20.9375C963.552 18.0729 961.182 15.7943 958.188 14.1016C955.219 12.4089 952.029 11.5625 948.617 11.5625H913.227V65H910.414V8.75H948.617C951.56 8.75 954.385 9.33594 957.094 10.5078C959.828 11.6536 962.185 13.1901 964.164 15.1172C966.143 17.0182 967.732 19.2839 968.93 21.9141C970.128 24.5443 970.727 27.2656 970.727 30.0781C970.727 34.6354 969.685 38.6198 967.602 42.0312C965.518 45.4167 962.719 47.9948 959.203 49.7656L965.102 65H962.094L956.508 50.8984C955.805 51.1328 954.984 51.3672 954.047 51.6016L959.32 65H956.312L951.156 52.0703C950.349 52.1484 949.503 52.1875 948.617 52.1875L953.578 65H950.609L945.688 52.1875H943.148L947.875 65H944.906L940.141 52.1875H931.664V49.375ZM930.102 65H927.289V25.625H948.617C950.076 25.625 951.312 26.0677 952.328 26.9531C953.344 27.8125 953.852 28.8542 953.852 30.0781C953.852 33.5677 952.107 35.3125 948.617 35.3125H931.664V32.5H948.617C950.232 32.5 951.039 31.6927 951.039 30.0781C951.039 29.6354 950.792 29.2578 950.297 28.9453C949.828 28.6068 949.268 28.4375 948.617 28.4375H930.102V65Z" fill="url(#paint0_linear_10_37)"/>
</g>
<defs>
<filter id="filter0_d_10_37" x="0.632812" y="0.3125" width="974.094" height="75.5" filterUnits="userSpaceOnUse" color-interpolation-filters="sRGB">
<feFlood flood-opacity="0" result="BackgroundImageFix"/>
<feColorMatrix in="SourceAlpha" type="matrix" values="0 0 0 0 0 0 0 0 0 0 0 0 0 0 0 0 0 0 127 0" result="hardAlpha"/>
<feOffset dy="4"/>
<feGaussianBlur stdDeviation="2"/>
<feComposite in2="hardAlpha" operator="out"/>
<feColorMatrix type="matrix" values="0 0 0 0 0.390721 0 0 0 0 0.150937 0 0 0 0 0.525 0 0 0 1 0"/>
<feBlend mode="normal" in2="BackgroundImageFix" result="effect1_dropShadow_10_37"/>
<feBlend mode="normal" in="SourceGraphic" in2="effect1_dropShadow_10_37" result="shape"/>
</filter>
<linearGradient id="paint0_linear_10_37" x1="1" y1="34.5" x2="974" y2="34.5" gradientUnits="userSpaceOnUse">
<stop stop-color="#642686"/>
<stop offset="1" stop-color="#A2D2FF"/>
</linearGradient>
</defs>
</svg>
