<svg width="160" height="160" viewBox="0 0 160 160" fill="none" xmlns="http://www.w3.org/2000/svg">
<rect width="160" height="160" rx="25" fill="#642686"/>
<path d="M67.1191 120H63.6035V39.1406H67.1191V120ZM60.0879 120H56.5723V39.1406H60.0879V120ZM53.0566 120H49.541V39.1406H53.0566V120ZM74.1504 102.422H111.553V105.938H74.1504V109.453H111.553V112.969H74.1504V116.484H111.553V120H70.6348V39.1406H111.553V42.6562H74.1504V46.1719H111.553V49.6875H74.1504V53.2031H111.553V56.7188H74.1504V70.7812H93.3398V74.2969H74.1504V77.8125H93.3398V81.3281H74.1504V84.8438H93.3398V88.3594H74.1504V102.422Z" fill="white"/>
<rect x="13" y="12" width="135" height="135" rx="20" stroke="#A2D2FF" stroke-width="10"/>
</svg>
