<svg xmlns="http://www.w3.org/2000/svg" xmlns:xlink="http://www.w3.org/1999/xlink" width="174.871" height="72.391" viewBox="0 0 174.871 72.391">
  <defs>
    <clipPath id="clip-path">
      <rect id="Rectángulo_2704" data-name="Rectángulo 2704" width="174.871" height="72.391" fill="none"/>
    </clipPath>
  </defs>
  <g id="Grupo_2162" data-name="Grupo 2162" transform="translate(7439.871 -10847.35)">
    <g id="Grupo_2150" data-name="Grupo 2150" transform="translate(-7439.871 10847.35)" clip-path="url(#clip-path)">
      <path id="Trazado_10265" data-name="Trazado 10265" d="M25.35,39c2.616-5.225,7.667-11.681,10.709-11.264,1.98.272-2.068,10.514-5.043,17.847s-5,12.313-6.277,18.4S24.456,75.6,22.663,80.966c-1.705,5.1-4.6,10.657-8.749,9.771-1.863-.4-.023-5.205.589-7.592S20.3,66.91,21.44,59.46c1.4-9.192,1.026-14.7,3.91-20.46" transform="translate(-8.716 -18.439)" fill="#5ab043"/>
      <path id="Trazado_10266" data-name="Trazado 10266" d="M64.434,10.44C74.079,10.2,80.216,30.275,82.7,44.19a1,1,0,0,1-.648,1.1,1.3,1.3,0,0,1-1.407-.263c-7.678-8.012-14.749-16.962-21.981-16.783-9.136.226-12.544,9.664-17.705,18.59C35.293,56.63,29.577,66.4,19.3,66.657,10.482,66.874.182,59.458,0,52.234S7.16,41.8,9.325,48.9,12.7,63.6,16.9,63.493c5.839-.144,12.457-14.141,21.56-27.545C47.2,23.076,56.727,10.63,64.434,10.44" transform="translate(0 -6.944)" fill="#cf462b"/>
      <path id="Trazado_10267" data-name="Trazado 10267" d="M107.216.476c1.558,2.351-9.922,14.817-19.471,25.066a.259.259,0,0,0,.229.433c6.869-1.058,9.931-.743,10.781.987C100.33,30.168,91,37.5,92.124,39.9c1.44,3.071,12.2,2.355,14.239,6.087.978,1.794-1.685,9.674-8.152,11.848S85.94,52.5,83.265,47.342c-.988-1.906-10.139-22.4,2.062-36.691C94.072.412,106.264-.959,107.216.476" transform="translate(-52.585 0)" fill="#1c589e"/>
      <path id="Trazado_10268" data-name="Trazado 10268" d="M81.469.372C80.784-.74,76.919.729,76,3.554s.268,3,1.547,2.825,2.26,1.079,2.765.049,1.874-4.9,1.16-6.056" transform="translate(-50.34 0)" fill="#5ab043"/>
      <path id="Trazado_10269" data-name="Trazado 10269" d="M260,53.831c2.173-.753,3.986-8.21,3.973-8.266.533-1.076,2.43-6.816,2.43-9.666,0-.722-.084-2.01-.815-2.01a3.776,3.776,0,0,0-1.892,1.077,2.46,2.46,0,0,0-1.3.658c-1.263.718-1.686,1.218-.313,1.381.929.111,1.307.256.219,5.049a14.413,14.413,0,0,1-.742,3.044c-1.365,3.776-2.093,8.735-3.674,5.234-.239-.526-.5-.566.153-.885.625-.3.65-.471-.713-2.96a2.136,2.136,0,0,0-2.19-1.077c-.864,0-.962,2.355-.022,4.2a31.63,31.63,0,0,0,1.564,3.738c.545,1.1,2.145.858,3.318.479" transform="translate(-169.278 -22.546)" fill="#fff"/>
      <path id="Trazado_10270" data-name="Trazado 10270" d="M288.454,65.366a7.67,7.67,0,0,1,.7,1.316c.577-.518-.343.012,1.3-1.041.222-.143.434-.3.633-.156.438.329-1.2,1.827.5,3.278,1.657,1.412,5.016.232,6.417-1.3.786,1.411,2.484.156,3.8-.778l-.014-.025c.061.042.113-.106.331-.406,1.927-1.056,3.232-2.925,4.759-3.648,1.862.192,1.1,2.96.378,4.7-.308.718-1.846,2.345.727,2.345a26.292,26.292,0,0,0,5.467-2.977c1.624-1.389-.015-.294,2.447,2.248,2.014,2.1,1.343.873-1.485,4.294A6.125,6.125,0,0,0,313.2,75.5c0,2.12-.1,2.954,2.43,2.954,2.613,0,6.452-2.641,6.738-4.952.052-.363.069-.5.087-.586-.521-2.962-1.848-2.912-1.848-3.553a33.16,33.16,0,0,1,2.806-3c1.29-.8.483,2.864,4.467,2.147a2.249,2.249,0,0,0,.64-.209,6.13,6.13,0,0,0,3.3-1.615c-.951-1.95-.266-1.18-2.35-.646-1.377.352-2.51.007-2.787-.485-.579-1.031.485-1.078,2.474-3.17a5.664,5.664,0,0,0,1.484-2.662,2.957,2.957,0,0,0-.553-1.507,2.731,2.731,0,0,0-2.2-.168c-1.636,1.008.059-.284-2.445,2.022a7.413,7.413,0,0,0-1.732,4.043,5.207,5.207,0,0,0-1.383,1.256,20.687,20.687,0,0,1-2.995,2.692,8.6,8.6,0,0,1-1.863-1.938,3.273,3.273,0,0,1-.349-1.663c.3-.841.1-.565.851-1.2.683-.575,4.591-3.874,4.591-4.761a1.838,1.838,0,0,0-.254-1.064c-.418-.588-1.487-.354-2.117-.042-.717.355-.324.239-3.187,2.842-2.029,1.845-1.562,2.9-3.551,4.33-.877.933-5.2,4.689-3.213.736,1.1-2.185.426-3.961-1.135-4.851-.776-.637-1.112-.885-1.8-.885a4.508,4.508,0,0,0-2.576,1.34l.175.682a10.348,10.348,0,0,1-3.274,3.146c-.529.676-1.25,1.375-1.554.574,1.872-1.409,1.342-5.809-2.052-4.881-1.412.387-1.149.435-1.31.227.343-.586.509-.74.146-.879-1.418-.54-2.309.943-5.755,3.571a7.654,7.654,0,0,1-2.1,1.388,4.04,4.04,0,0,1-.553.634M327.925,60.7c.366,0,.516.645-.9,1.723-.249.306-.289.467-.553.467-.773,0,.864-2.189,1.455-2.189M318.47,71.383c.622,0,1.251,1.453,1.251,2.045,0,2.463-4.919,4.545-4.919,2.967a5.737,5.737,0,0,1,.655-1.5c.459-.526,2.659-3.517,3.012-3.517m-24.69-5.234a6.547,6.547,0,0,1,.662-1.525c.291-.39.351-.192.866-.418.7-.305,1.094-1.409,1.542-1.472,1.342.142,1.392.049,1.819,1.2-.479,1.215-.489,1.437-.713,1.579a8.092,8.092,0,0,1-1.79,1.609c-.791.431-2.891.863-2.387-.969" transform="translate(-191.897 -37.968)" fill="#fff"/>
      <path id="Trazado_10271" data-name="Trazado 10271" d="M272.754,123.636a3.619,3.619,0,0,0-1.427,1.292c-.782.985-.548.638-2.951,2.65-8.483,7.1-7.495-11.758.217-13.894a3.26,3.26,0,0,1,3.236.628,6.9,6.9,0,0,1,1.592,3.338c0,1.817,3.183-.352,3.183-1.292a5.023,5.023,0,0,0-.822-1.807,3.02,3.02,0,0,0-1-1.483c-1.12-1.127-.981-1.012-2.885-1.519-.76.215.534-.16-2.481.12-9.318,2.63-10.192,11.015-10.51,14.035a4.863,4.863,0,0,0,.375,2.446c1.518,3.492,2.97,2.588,4.876,2.91,2.959-.365,4.642-2.194,6.516-3.23.368,0,.259.273.12.586.342,1.335.293.493-.2,2.452a8.174,8.174,0,0,0-.254,1.848c-.092.679-.668,1.91-.277,2.416.218.28.937.308,1.121-.485,1.606-.429,1.317-.634,1.734-2.051a7.031,7.031,0,0,0,.71-2.028c.336-1.795.577-1.384.86-2.441a25.217,25.217,0,0,1,.605-3.164c.6-1.454-1.137-1.814-2.331-1.328" transform="translate(-172.22 -74.209)" fill="#fff"/>
      <path id="Trazado_10272" data-name="Trazado 10272" d="M366.367,130.486a2.652,2.652,0,0,0-1.809,1.783c0,.443.1.971.493,1.16,1.213,0,.982.167,1.524-.012,1.581-.562,1.782-1.22,2-1.77.488-1.214.929-2.081-.359-2.081-1.083,0-1.244.312-1.853.921" transform="translate(-242.526 -86.195)" fill="#fff"/>
      <path id="Trazado_10273" data-name="Trazado 10273" d="M460.484,124.217c.192-.066.179-.3.463-.443a4.779,4.779,0,0,0,.657-.2c.4-.191.349-.275.747-.467.359-.2.406-.071.807-.263.191-.066.361-.333.568-.395,3.557-1.095.736-4.336-.358-2.584-.2.35-.05.443-.359.813a5.412,5.412,0,0,1-1.495,1.089,7.827,7.827,0,0,0-1.4,1.161c-.265.213-.856.487-.7.73.073.295.027,1.066,1.076.562" transform="translate(-305.609 -79.401)" fill="#fff"/>
      <path id="Trazado_10274" data-name="Trazado 10274" d="M379.969,126.365a.185.185,0,0,0-.243-.07c-3.1,1.579-1.137-4.681-5.524-2.816a9.706,9.706,0,0,0-2.78,2.189c-1.276.876-1.164,1.118-1.509,1.256-.141-.155-.136-.208-.09-.431,0-.009,1.7-3.414,1.7-4.605,0-1.861-2.342-1.451-3.557-.335-3.256,3.007-4.6,3.945-5.032,4.385-.144-.087-.361.276-1.731.618-1.4.35-2.574.015-2.862-.484-.594-1.03.5-1.075,2.541-3.17a5.623,5.623,0,0,0,1.524-2.662,2.913,2.913,0,0,0-.568-1.507,2.873,2.873,0,0,0-2.257-.167c-1.688,1.013.061-.284-2.511,2.021a7.227,7.227,0,0,0-1.778,4.043,5.293,5.293,0,0,0-1.42,1.256l.049.076c-2.76,1.941-5.72,1.479-5.72-1.656,1.19-1.429,6.309-7.9,6.172-9.761a12.23,12.23,0,0,0,.583-2.465c.4-1.831-.282-2.249-1.719-2.249-2.5,0-7.4,10.547-6.934,11.759a7.12,7.12,0,0,0-.449,2.034c.162.65.153.494-1.225,1.459-.443.418-.449.541-.747.8l.044.08c-2.768,1.945-5.716,1.459-5.716-1.659,1.19-1.429,6.309-7.9,6.172-9.761.005-.008,2.289-4.713-1.136-4.713-2.5,0-7.4,10.547-6.934,11.759a7.12,7.12,0,0,0-.448,2.034c.162.65.153.494-1.226,1.459-.444.418-.449.541-.747.8.072.132.2-.014-.949.753-.575.384-1.762.647-2.077.144-.149-.139-.335-1-.583-1.531a17.938,17.938,0,0,0-.4-1.806,1.542,1.542,0,0,0-2.51-.574c-.766.843-3.859,2.8-3.511,3.042-1.675.516-1.447-.776-1.616-1.392-.221-.8.115-1.487-.6-1.734a1.843,1.843,0,0,0-1.681.245c-.6.491-.51.827-1.083,1.346s-.992,1.223-2.653,2.68c-1.107.48-1.215.7-1.36.143-1.029-3.76,4.282-8.4-.747-6.472-1.636,1.67,2.4-2.277-5.036,5.156a2.873,2.873,0,0,1,.25,1.014.24.24,0,0,0,.409.133c2.093-2.13,1.667-1.344,2.225,1.174.4,2.06,2.8,1.968,4.438.443.91-.816,2.717-2.528,2.75-2.56.695.649.548,2.165,2.765,2.165a10.834,10.834,0,0,0,2.794-1.053l-.055-.1c2.086-1.851,1.934-1.068,2.79-.1.4.454.691,1.568,1.293,1.944a4.453,4.453,0,0,0,2.907.1,19.647,19.647,0,0,0,3.161-1.842l-.057-.1c.639-.468.635-.523,1.171-.924.927.819-.284,2.76,3.8,3.086,2.247.179,2.7-.379,5.021-2.058l-.04-.074c.681-.5.666-.545,1.213-.955.56.494.292,1.461,1.241,2.392.763.75,1.479.608,2.555.694,2.247.179,2.7-.379,5.021-2.058-.028-.053-.135-.094.247-.323.921-.553,1.707,3.726,5.246,1.938a5.961,5.961,0,0,0,3.18-1.452c.1.255,2.714-2.165,3.285-2.5.464-.276.972-.281.822.275-.2.745.6-1.72-1.136,2.955-.679,1.825-.671,1.256-.493,2.3.084.491.985.43,1.435.329a14.8,14.8,0,0,0,2.989-2.231,12.711,12.711,0,0,1,3.967-2.615c2,.581,1.376,4.955,6.047,1.818a.382.382,0,0,0,.122-.5c-.162-.293-.363-.634-.477-.827m-30.733-7.082c.525-.945.74-1.177.934-1.591.273-.584-.216-1.3,2.145-3.135l.12.06a11.784,11.784,0,0,1-2.451,5.222c-.525.665-1.093,1.874-1.45,1.466a9.438,9.438,0,0,1,.7-2.022m-9.991,0c.525-.945.74-1.177.934-1.591.273-.584-.216-1.3,2.145-3.135l.12.06a11.785,11.785,0,0,1-2.451,5.222c-.525.665-1.093,1.874-1.449,1.466a9.436,9.436,0,0,1,.7-2.022m20.37,1.938c.381,0,.521.652-.927,1.723-.253.3-.3.466-.568.466-.8,0,.892-2.189,1.495-2.189" transform="translate(-205.623 -73.068)" fill="#fff"/>
    </g>
  </g>
</svg>
